<svg width="68" height="40" viewBox="0 0 68 40" fill="none" xmlns="http://www.w3.org/2000/svg">
<path d="M15.7298 40C12.4527 40 9.74372 39.4251 7.60272 38.2753C5.46172 37.1255 3.95429 35.445 3.08041 33.2338L3.93244 33.6318V39.3366H0.131082V26.4677H3.80136C3.93244 29.4748 4.78447 31.7966 6.35745 33.4328C7.97412 35.0691 10.7705 35.8872 14.7467 35.8872C17.8926 35.8872 20.1647 35.2681 21.5629 34.0299C22.9611 32.7916 23.6602 31.2217 23.6602 29.3201C23.6602 27.5069 23.1577 26.136 22.1527 25.2073C21.1915 24.2344 19.4656 23.5268 16.975 23.0846L10.2899 21.8242C6.92547 21.2051 4.36938 20.0111 2.62163 18.2421C0.873876 16.4732 0 14.1072 0 11.1443C0 9.11001 0.458785 7.25263 1.37635 5.57214C2.33762 3.89165 3.77951 2.54284 5.70204 1.5257C7.66826 0.508568 10.0933 0 12.9771 0C15.9482 0 18.4169 0.574904 20.3832 1.72471C22.3494 2.87452 23.7476 4.51078 24.5778 6.6335H23.6602V0.663353H27.4615V11.7413H23.7913C23.6602 9.48591 22.7645 7.65064 21.1041 6.23549C19.4437 4.82034 17.0187 4.11277 13.8291 4.11277C11.8629 4.11277 10.2462 4.40022 8.97907 4.97513C7.75565 5.55003 6.85993 6.32394 6.29191 7.29685C5.76758 8.26976 5.50542 9.33112 5.50542 10.4809C5.50542 12.1172 6.02974 13.4218 7.07839 14.3947C8.12705 15.3676 9.78741 16.0752 12.0595 16.5174L18.6791 17.7114C22.2183 18.3748 24.8618 19.5467 26.6095 21.2272C28.3573 22.9077 29.2311 25.34 29.2311 28.524C29.2311 30.7352 28.7068 32.7032 27.6582 34.4279C26.6532 36.1526 25.1458 37.5235 23.1359 38.5406C21.1696 39.5135 18.7009 40 15.7298 40Z" fill="black"/>
<path d="M34.9019 39.3366V35.4229H39.752V4.57711H34.9019V0.663353H55.154C59.436 0.663353 62.6475 1.61415 64.7885 3.51576C66.9295 5.37314 68 8.13709 68 11.8076C68 15.5224 66.9295 18.3085 64.7885 20.1658C62.6475 22.0232 59.436 22.9519 55.154 22.9519H48.2067V18.9718H54.3675C57.1202 18.9718 59.152 18.3527 60.4628 17.1144C61.7736 15.8762 62.429 14.1072 62.429 11.8076C62.429 9.46379 61.7736 7.67275 60.4628 6.4345C59.1957 5.19624 57.1639 4.57711 54.3675 4.57711H45.1263V35.4229H51.4837V39.3366H34.9019Z" fill="black"/>
</svg>
